<svg width="22" height="22" fill="none" xmlns="http://www.w3.org/2000/svg"><path d="M11 3.667c-1.67 0-3.23.301-4.684.905-1.452.603-2.606 1.417-3.462 2.441C2 8.037 1.571 9.144 1.571 10.333c0 .973.293 1.9.878 2.78.585.881 1.41 1.643 2.474 2.285l1.068.651-.331 1.25a9.668 9.668 0 0 1-.86 2.24 12.022 12.022 0 0 0 3.376-2.227l.528-.494.7.078c.565.07 1.097.104 1.596.104 1.67 0 3.23-.302 4.684-.905 1.452-.603 2.606-1.417 3.462-2.441.855-1.025 1.283-2.131 1.283-3.32 0-1.19-.428-2.297-1.283-3.321-.856-1.024-2.01-1.838-3.462-2.441-1.453-.604-3.014-.905-4.684-.905Zm11 6.666c0 1.51-.491 2.906-1.473 4.187-.982 1.28-2.316 2.291-4.002 3.033-1.686.743-3.528 1.114-5.525 1.114-.573 0-1.166-.035-1.78-.105a13.182 13.182 0 0 1-5.647 3.151 8.77 8.77 0 0 1-1.4.287h-.061a.475.475 0 0 1-.332-.137.673.673 0 0 1-.196-.358v-.013c-.025-.035-.027-.087-.006-.156a.367.367 0 0 0 .024-.13c-.004-.018.014-.059.055-.124l.074-.117.086-.11.098-.118a170.885 170.885 0 0 1 .804-.944c.086-.1.213-.271.38-.514.169-.243.302-.465.4-.664a10.222 10.222 0 0 0 .651-1.759c-1.285-.772-2.298-1.727-3.039-2.864C.371 12.855 0 11.635 0 10.333c0-1.51.491-2.905 1.473-4.186.982-1.28 2.316-2.292 4.002-3.034S9.003 2 11 2c1.997 0 3.838.371 5.525 1.113 1.686.742 3.02 1.754 4.002 3.034C21.509 7.427 22 8.823 22 10.333Z" fill="#100E0E" opacity=".25"/></svg>