<svg width="17" height="17" fill="none" xmlns="http://www.w3.org/2000/svg"><path d="M5.667 1.133H4.533v3.4h1.134v-3.4Zm6.8 0h-1.134v3.4h1.134v-3.4Z" fill="#100E0E"/><path d="M15.867 15.867H1.133v-13.6h14.734v13.6Zm-13.6-1.134h12.466V3.4H2.267v11.333Z" fill="#100E0E"/><path d="M15.867 5.667H1.133V6.8h14.734V5.667ZM6.8 7.933H5.667v1.134H6.8V7.933Zm2.267 0H7.933v1.134h1.134V7.933Zm2.266 0H10.2v1.134h1.133V7.933Zm2.267 0h-1.133v1.134H13.6V7.933ZM4.533 10.2H3.4v1.133h1.133V10.2Zm2.267 0H5.667v1.133H6.8V10.2Zm2.267 0H7.933v1.133h1.134V10.2Zm2.266 0H10.2v1.133h1.133V10.2Zm2.267 0h-1.133v1.133H13.6V10.2Zm-9.067 2.267H3.4V13.6h1.133v-1.133Zm2.267 0H5.667V13.6H6.8v-1.133Zm2.267 0H7.933V13.6h1.134v-1.133Z" fill="#100E0E"/></svg>