<svg width="15" height="17" fill="none" xmlns="http://www.w3.org/2000/svg"><path d="M7.158 9.208a2.136 2.136 0 0 0 2.147-2.125 2.136 2.136 0 0 0-2.147-2.125A2.136 2.136 0 0 0 5.01 7.083c0 1.174.96 2.125 2.147 2.125Z" stroke="#100E0E" stroke-width="1.2" stroke-linecap="round" stroke-linejoin="round"/><path d="M7.158 1.417a5.757 5.757 0 0 0-4.05 1.66 5.637 5.637 0 0 0-1.676 4.006c0 1.34.287 2.217 1.073 3.188l4.653 5.312 4.652-5.312c.786-.97 1.074-1.848 1.074-3.188a5.637 5.637 0 0 0-1.677-4.007 5.757 5.757 0 0 0-4.05-1.66v0Z" stroke="#100E0E" stroke-width="1.2" stroke-linecap="round" stroke-linejoin="round"/></svg>