<svg width="22" height="22" fill="none" xmlns="http://www.w3.org/2000/svg"><g opacity=".25" fill="#100E0E"><path d="M6.73 12.855a1.814 1.814 0 0 0-.457-.136c-1.224-.193-2.338.935-2.487 2.52l-.476 5.065h15.38l-.476-5.064a3.638 3.638 0 0 0-.105-.592c-.402-1.51-1.673-2.313-2.839-1.793-1.333.595-2.759.89-4.27.89-1.511 0-2.936-.295-4.27-.89ZM11 12.05c1.369 0 2.65-.267 3.844-.799 1.85-.825 3.866.449 4.503 2.845.081.304.137.619.167.939l.476 5.064c.088.93-.423 1.775-1.142 1.889a1.026 1.026 0 0 1-.158.012H3.31C2.587 22 2 21.24 2 20.304c0-.069.003-.137.01-.205l.476-5.064c.236-2.516 2.003-4.306 3.945-4 .247.039.49.111.725.216A9.331 9.331 0 0 0 11 12.05Z"/><path d="M11 11a4.813 4.813 0 1 1 0-9.625A4.813 4.813 0 0 1 11 11Zm0-1.375a3.437 3.437 0 1 0 0-6.875 3.437 3.437 0 0 0 0 6.875Z"/></g></svg>