<svg width="17" height="17" viewBox="0 0 17 17" fill="none" xmlns="http://www.w3.org/2000/svg">
<path d="M5.66672 1.13332H4.53339V4.53332H5.66672V1.13332Z" fill="#ff711f"/>
<path d="M12.4666 1.13332H11.3333V4.53332H12.4666V1.13332Z" fill="#ff711f"/>
<path d="M15.8666 15.8666H1.1333V2.26663H15.8666V15.8666ZM2.26663 14.7333H14.7333V3.39997H2.26663V14.7333Z" fill="#ff711f"/>
<path d="M15.8666 5.66672H1.1333V6.80005H15.8666V5.66672Z" fill="#ff711f"/>
<path d="M6.80002 7.93335H5.66669V9.06668H6.80002V7.93335Z" fill="#ff711f"/>
<path d="M9.06668 7.93335H7.93335V9.06668H9.06668V7.93335Z" fill="#ff711f"/>
<path d="M11.3333 7.93335H10.2V9.06668H11.3333V7.93335Z" fill="#ff711f"/>
<path d="M13.5999 7.93335H12.4666V9.06668H13.5999V7.93335Z" fill="#ff711f"/>
<path d="M4.5333 10.2H3.39996V11.3333H4.5333V10.2Z" fill="#ff711f"/>
<path d="M6.80002 10.2H5.66669V11.3333H6.80002V10.2Z" fill="#ff711f"/>
<path d="M9.06668 10.2H7.93335V11.3333H9.06668V10.2Z" fill="#ff711f"/>
<path d="M11.3333 10.2H10.2V11.3333H11.3333V10.2Z" fill="#ff711f"/>
<path d="M13.5999 10.2H12.4666V11.3333H13.5999V10.2Z" fill="#ff711f"/>
<path d="M4.5333 12.4666H3.39996V13.5999H4.5333V12.4666Z" fill="#ff711f"/>
<path d="M6.80002 12.4666H5.66669V13.5999H6.80002V12.4666Z" fill="#ff711f"/>
<path d="M9.06668 12.4666H7.93335V13.5999H9.06668V12.4666Z" fill="#ff711f"/>
</svg>
