<svg width="22" height="22" viewBox="0 0 22 22" fill="none" xmlns="http://www.w3.org/2000/svg">
<g opacity="0.25">
<path d="M11 3.66667C9.33036 3.66667 7.76916 3.96832 6.31641 4.57161C4.86365 5.17491 3.70964 5.98872 2.85435 7.01302C1.99907 8.03733 1.57143 9.1441 1.57143 10.3333C1.57143 11.3056 1.86403 12.2322 2.44922 13.1133C3.03441 13.9944 3.859 14.7561 4.92299 15.3984L5.99107 16.0495L5.6596 17.2995C5.46317 18.0894 5.17671 18.8359 4.80022 19.5391C6.04427 18.9922 7.16964 18.25 8.17634 17.3125L8.70424 16.8177L9.40402 16.8958C9.96875 16.9653 10.5007 17 11 17C12.6696 17 14.2308 16.6983 15.6836 16.0951C17.1363 15.4918 18.2904 14.678 19.1456 13.6536C20.0009 12.6293 20.4286 11.5226 20.4286 10.3333C20.4286 9.1441 20.0009 8.03733 19.1456 7.01302C18.2904 5.98872 17.1363 5.17491 15.6836 4.57161C14.2308 3.96832 12.6696 3.66667 11 3.66667ZM22 10.3333C22 11.8438 21.5089 13.2391 20.5268 14.5195C19.5446 15.7999 18.2106 16.8112 16.5246 17.5534C14.8385 18.2956 12.997 18.6667 11 18.6667C10.4271 18.6667 9.8337 18.6319 9.21987 18.5625C7.59933 20.0816 5.71689 21.1319 3.57254 21.7135C3.1715 21.8351 2.70499 21.9306 2.17299 22H2.11161C1.98884 22 1.87835 21.9544 1.78013 21.8633C1.68192 21.7721 1.61644 21.6528 1.58371 21.5052V21.4922C1.55915 21.4575 1.55711 21.4054 1.57757 21.3359C1.59803 21.2665 1.60621 21.2231 1.60212 21.2057C1.59803 21.1884 1.61644 21.1471 1.65737 21.082L1.73103 20.9648L1.81696 20.8542L1.91518 20.737C1.97247 20.6675 2.09933 20.5178 2.29576 20.2878C2.49219 20.0577 2.63337 19.8928 2.71931 19.793C2.80525 19.6931 2.93211 19.5217 3.09989 19.2786C3.26767 19.0356 3.40067 18.8142 3.49888 18.6146C3.5971 18.4149 3.70759 18.1589 3.83036 17.8464C3.95312 17.5339 4.05952 17.204 4.14955 16.8568C2.86458 16.0842 1.85175 15.1293 1.11105 13.9922C0.37035 12.855 0 11.6354 0 10.3333C0 8.82292 0.491071 7.42752 1.47321 6.14714C2.45536 4.86675 3.78943 3.85547 5.47545 3.11328C7.16146 2.37109 9.00298 2 11 2C12.997 2 14.8385 2.37109 16.5246 3.11328C18.2106 3.85547 19.5446 4.86675 20.5268 6.14714C21.5089 7.42752 22 8.82292 22 10.3333Z" fill="#100E0E"/>
</g>
</svg>
