<svg width="15" height="17" viewBox="0 0 15 17" fill="none" xmlns="http://www.w3.org/2000/svg">
<path d="M7.15787 9.20825C8.34382 9.20825 9.30523 8.25686 9.30523 7.08325C9.30523 5.90965 8.34382 4.95825 7.15787 4.95825C5.97191 4.95825 5.0105 5.90965 5.0105 7.08325C5.0105 8.25686 5.97191 9.20825 7.15787 9.20825Z" stroke="#100E0E" stroke-width="1.2" stroke-linecap="round" stroke-linejoin="round"/>
<path d="M7.15783 1.41663C5.63912 1.41663 4.18261 2.01365 3.10872 3.07635C2.03483 4.13906 1.43152 5.5804 1.43152 7.08329C1.43152 8.42346 1.71927 9.30038 2.5052 10.2708L7.15783 15.5833L11.8105 10.2708C12.5964 9.30038 12.8842 8.42346 12.8842 7.08329C12.8842 5.5804 12.2808 4.13906 11.207 3.07635C10.1331 2.01365 8.67655 1.41663 7.15783 1.41663V1.41663Z" stroke="#100E0E" stroke-width="1.2" stroke-linecap="round" stroke-linejoin="round"/>
</svg>
