<svg width="20" height="24" viewBox="0 0 20 24" fill="none" xmlns="http://www.w3.org/2000/svg">
<path d="M10 13C11.6569 13 13 11.6569 13 10C13 8.34315 11.6569 7 10 7C8.34315 7 7 8.34315 7 10C7 11.6569 8.34315 13 10 13Z" stroke="#FF711F" stroke-width="1.5" stroke-linecap="round" stroke-linejoin="round"/>
<path d="M10 2C7.87827 2 5.84344 2.84285 4.34315 4.34315C2.84285 5.84344 2 7.87827 2 10C2 11.892 2.402 13.13 3.5 14.5L10 22L16.5 14.5C17.598 13.13 18 11.892 18 10C18 7.87827 17.1571 5.84344 15.6569 4.34315C14.1566 2.84285 12.1217 2 10 2V2Z" stroke="#FF711F" stroke-width="1.5" stroke-linecap="round" stroke-linejoin="round"/>
</svg>
