<svg width="22" height="22" viewBox="0 0 22 22" fill="none" xmlns="http://www.w3.org/2000/svg">
<g opacity="0.25">
<path d="M6.7298 12.8551C6.58157 12.7889 6.42837 12.7433 6.27274 12.7187C5.04851 12.5257 3.93522 13.6544 3.78615 15.2397L3.30999 20.3037H18.6901L18.214 15.2397C18.195 15.0382 18.1597 14.8398 18.1087 14.6478C17.7072 13.1378 16.4364 12.3351 15.2703 12.8551C13.9365 13.4498 12.5112 13.7458 11.0001 13.7458C9.48895 13.7458 8.06365 13.4498 6.7298 12.8551ZM11.0001 12.0496C12.3689 12.0496 13.6502 11.7834 14.8439 11.2512C16.694 10.4263 18.7102 11.6997 19.3472 14.0956C19.4282 14.4002 19.4842 14.7149 19.5142 15.0347L19.9904 20.0987C20.0778 21.0287 19.5666 21.8743 18.8484 21.9876C18.7959 21.9958 18.743 22 18.6901 22H3.30999C2.58657 22 2.00012 21.2406 2.00012 20.3037C2.00012 20.2352 2.00333 20.1667 2.00973 20.0987L2.48589 15.0347C2.7224 12.5194 4.48871 10.7286 6.43107 11.0349C6.67799 11.0738 6.92105 11.1463 7.15625 11.2512C8.34993 11.7834 9.6312 12.0496 11.0001 12.0496Z" fill="#100E0E"/>
<path d="M11 11C8.34213 11 6.1875 8.84537 6.1875 6.1875C6.1875 3.52963 8.34213 1.375 11 1.375C13.6579 1.375 15.8125 3.52963 15.8125 6.1875C15.8125 8.84537 13.6579 11 11 11ZM11 9.625C12.8985 9.625 14.4375 8.08598 14.4375 6.1875C14.4375 4.28902 12.8985 2.75 11 2.75C9.10152 2.75 7.5625 4.28902 7.5625 6.1875C7.5625 8.08598 9.10152 9.625 11 9.625Z" fill="#100E0E"/>
</g>
</svg>
